<svg width="256" height="256" xmlns="http://www.w3.org/2000/svg" xmlns:xlink="http://www.w3.org/1999/xlink" xml:space="preserve" overflow="hidden"><g transform="translate(-512 -232)"><g><path d="M760.133 450.322 705.082 395.268C731.777 354.742 727.315 299.576 691.69 263.951 691.69 263.951 691.687 263.951 691.687 263.951 650.956 223.226 584.682 223.223 543.954 263.951 503.226 304.682 503.226 370.953 543.954 411.687 564.321 432.051 591.069 442.232 617.821 442.232 637.867 442.232 657.911 436.513 675.271 425.079L730.322 480.13C734.438 484.247 739.834 486.307 745.226 486.307 750.618 486.307 756.016 484.247 760.133 480.133 768.364 471.9 768.364 458.555 760.133 450.322ZM573.765 381.879C549.473 357.583 549.473 318.055 573.765 293.763 585.913 281.618 601.865 275.545 617.823 275.545 633.779 275.545 649.734 281.618 661.879 293.763 686.168 318.052 686.171 357.569 661.893 381.862 661.887 381.867 661.881 381.87 661.879 381.876 661.873 381.881 661.87 381.884 661.867 381.89 637.564 406.168 598.052 406.165 573.765 381.879Z" fill="#FFFFFF" fill-rule="nonzero" fill-opacity="1"/></g></g></svg>