<svg width="720" height="720" xmlns="http://www.w3.org/2000/svg" xmlns:xlink="http://www.w3.org/1999/xlink" xml:space="preserve" overflow="hidden"><g transform="translate(-280 0)"><g><path d="M897.143 562.098C897.143 591.296 888.774 616.339 872.031 637.232 855.289 658.125 835.135 668.571 811.562 668.571L468.438 668.571C444.866 668.571 424.71 658.125 407.969 637.232 391.228 616.339 382.857 591.296 382.857 562.098 382.857 539.329 383.995 517.833 386.272 497.612 388.549 477.39 392.768 457.031 398.929 436.54 405.089 416.049 412.924 398.504 422.433 383.906 431.942 369.308 444.531 357.388 460.201 348.147 475.871 338.906 493.884 334.286 514.241 334.286 549.33 368.571 591.25 385.714 640 385.714 688.749 385.714 730.671 368.571 765.759 334.286 786.117 334.286 804.129 338.906 819.799 348.147 835.469 357.388 848.057 369.308 857.567 383.906 867.077 398.504 874.912 416.049 881.071 436.54 887.231 457.031 891.45 477.39 893.728 497.612 896.006 517.833 897.143 539.329 897.143 562.098ZM794.286 205.714C794.286 248.304 779.219 284.665 749.085 314.799 718.951 344.933 682.589 360 640 360 597.411 360 561.049 344.933 530.915 314.799 500.781 284.665 485.714 248.304 485.714 205.714 485.714 163.125 500.781 126.763 530.915 96.6295 561.049 66.4955 597.411 51.4286 640 51.4286 682.589 51.4286 718.951 66.4955 749.085 96.6295 779.219 126.763 794.286 163.125 794.286 205.714Z" fill="#FFFFFF" fill-rule="nonzero" fill-opacity="1"/></g></g></svg>